{"title":"Breaking.Glass.LDrip.MKV.AC3...vice","uid":5936999,"size":684089893,"categoryP":"video","categoryS":"movies","magnet":"?xt=urn:btih:f6a8dffc0be0932d6edefd220242ca6abff2c6d2&amp;dn=Breaking.Glass.LDrip.MKV.AC3...vice&amp;tr=udp%3A%2F%2Ftracker.openbittorrent.com%3A80&amp;tr=udp%3A%2F%2Fopen.demonii.com%3A1337&amp;tr=udp%3A%2F%2Ftracker.coppersurfer.tk%3A6969&amp;tr=udp%3A%2F%2Fexodus.desync.com%3A6969","seeders":0,"leechers":1,"uploader":"vicerock","files":-1,"time":1289003176,"description":"\nFormat : Matroska\nFile size : 643 MiB\nDuration : 1h 40mn\nOverall bit rate : 898 Kbps\nEncoded date : UTC 2010-11-05 18:41:27\nWriting application : mkvmerge v2.4.0 ('Fumbling Towards Ecstasy') built on Oct 11 2008 20:13:15\nWriting library : libebml v0.7.7 + libmatroska v0.8.1\n\nVideo\nID : 1\nFormat : AVC\nFormat/Info : Advanced Video Codec\nFormat profile : &lt;a class=&quot;__cf_email__&quot; href=&quot;/cdn-cgi/l/email-protection&quot; data-cfemail=&quot;aae8cbd9cfc6c3c4cfeae698849b&quot;&gt;[email&amp;#160;protected]&lt;/a&gt;&lt;script cf-hash='f9e31' type=&quot;text/javascript&quot;&gt;\n/* &lt;![CDATA[ */!function(){try{var t=&quot;currentScript&quot;in document?document.currentScript:function(){for(var t=document.getElementsByTagName(&quot;script&quot;),e=t.length;e--;)if(t[e].getAttribute(&quot;cf-hash&quot;))return t[e]}();if(t&amp;&amp;t.previousSibling){var e,r,n,i,c=t.previousSibling,a=c.getAttribute(&quot;data-cfemail&quot;);if(a){for(e=&quot;&quot;,r=parseInt(a.substr(0,2),16),n=2;a.length-n;n+=2)i=parseInt(a.substr(n,2),16)^r,e+=String.fromCharCode(i);e=document.createTextNode(e),c.parentNode.replaceChild(e,c)}}}catch(u){}}();/* ]]&gt; */&lt;/script&gt;\nFormat settings, CABAC : No\nFormat settings, ReFrames : 1 frame\nMuxing mode : Container profile=&lt;a class=&quot;__cf_email__&quot; href=&quot;/cdn-cgi/l/email-protection&quot; data-cfemail=&quot;085d666366677f66483a2639&quot;&gt;[email&amp;#160;protected]&lt;/a&gt;&lt;script cf-hash='f9e31' type=&quot;text/javascript&quot;&gt;\n/* &lt;![CDATA[ */!function(){try{var t=&quot;currentScript&quot;in document?document.currentScript:function(){for(var t=document.getElementsByTagName(&quot;script&quot;),e=t.length;e--;)if(t[e].getAttribute(&quot;cf-hash&quot;))return t[e]}();if(t&amp;&amp;t.previousSibling){var e,r,n,i,c=t.previousSibling,a=c.getAttribute(&quot;data-cfemail&quot;);if(a){for(e=&quot;&quot;,r=parseInt(a.substr(0,2),16),n=2;a.length-n;n+=2)i=parseInt(a.substr(n,2),16)^r,e+=String.fromCharCode(i);e=document.createTextNode(e),c.parentNode.replaceChild(e,c)}}}catch(u){}}();/* ]]&gt; */&lt;/script&gt;\nCodec ID : V_MPEG4/ISO/AVC\nDuration : 1h 40mn\nBit rate : 752 Kbps\nNominal bit rate : 768 Kbps\nWidth : 640 pixels\nHeight : 360 pixels\nDisplay aspect ratio : 16:9\nFrame rate : 25.000 fps\nResolution : 24 bits\nColorimetry : 4:2:0\nScan type : Progressive\nBits/(Pixel*Frame) : 0.131\nStream size : 538 MiB (84%)\nWriting library : x264 core 67 r1163+17 7d945df\n\nAudio\nID : 2\nFormat : AC-3\nFormat/Info : Audio Coding 3\nCodec ID : A_AC3\nDuration : 1h 40mn\nBit rate mode : Constant\nBit rate : 128 Kbps\nChannel(s) : 6 channels\nChannel positions : Front: L C R, Surround: L R, LFE\nSampling rate : 44.1 KHz\nStream size : 91.6 MiB (14%)\n\nThe movie tells the story of Kate (O'Connor), an angry but creative young woman who through a series of lucky breaks ends up becoming one of the biggest pop stars of her day. Her friend and manager Danny (played by a young Phil Daniels) comes along for the ride. All goes well for both of them until Kate has a nervous breakdown prompted by violence at a demonstration, and the group's saxophonist Ken (Jonathan Pryce) becomes increasingly dependent on intravenous drugs\n &lt;a href=&quot;\nhttp://www.imdb.com/title/tt0080469/&quot; rel=&quot;nofollow&quot; target=&quot;_NEW&quot;&gt;\nhttp://www.imdb.com/title/tt0080469/&lt;/a&gt;\n\nscreens\n &lt;a href=&quot;\nhttp://img832.imageshack.us/img832/7038/breakingclassmkvvicemkv.jpg&quot; rel=&quot;nofollow&quot; target=&quot;_NEW&quot;&gt;\nhttp://img832.imageshack.us/img832/7038/breakingclassmkvvicemkv.jpg&lt;/a&gt; &lt;a href=&quot;\nhttp://img703.imageshack.us/img703/7038/breakingclassmkvvicemkv.jpg&quot; rel=&quot;nofollow&quot; target=&quot;_NEW&quot;&gt;\nhttp://img703.imageshack.us/img703/7038/breakingclassmkvvicemkv.jpg&lt;/a&gt; &lt;a href=&quot;\nhttp://img72.imageshack.us/img72/7038/breakingclassmkvvicemkv.jpg&quot; rel=&quot;nofollow&quot; target=&quot;_NEW&quot;&gt;\nhttp://img72.imageshack.us/img72/7038/breakingclassmkvvicemkv.jpg&lt;/a&gt; &lt;a href=&quot;\nhttp://img217.imageshack.us/img217/7038/breakingclassmkvvicemkv.jpg&quot; rel=&quot;nofollow&quot; target=&quot;_NEW&quot;&gt;\nhttp://img217.imageshack.us/img217/7038/breakingclassmkvvicemkv.jpg&lt;/a&gt;","torrent":{"xt":"urn:btih:f6a8dffc0be0932d6edefd220242ca6abff2c6d2","amp;dn":"Breaking.Glass.LDrip.MKV.AC3...vice","amp;tr":["udp%3A%2F%2Ftracker.openbittorrent.com%3A80","udp%3A%2F%2Fopen.demonii.com%3A1337","udp%3A%2F%2Ftracker.coppersurfer.tk%3A6969","udp%3A%2F%2Fexodus.desync.com%3A6969"],"infoHash":"f6a8dffc0be0932d6edefd220242ca6abff2c6d2","infoHashBuffer":{"type":"Buffer","data":[246,168,223,252,11,224,147,45,110,222,253,34,2,66,202,106,191,242,198,210]},"announce":[],"urlList":[]}}